<svg xmlns="http://www.w3.org/2000/svg" width="29" height="24" viewBox="0 0 29 24">
    <path fill="#333" fill-rule="evenodd" d="M17.456 3.51c.575 0 1.041.467 1.041 1.042v1.551l3.542.001c2.45 0 4.444 1.989 4.553 4.476l.005.214v8.073h-2.834c-.243.97-1.109 1.69-2.143 1.69-1.033 0-1.9-.72-2.143-1.69H9.623c-.244.97-1.11 1.69-2.143 1.69-1.034 0-1.9-.72-2.144-1.69H1.999V4.552c0-.575.467-1.042 1.042-1.042zm4.164 13.596c-.386 0-.742.195-.96.517-.136.201-.21.438-.21.688 0 .667.527 1.204 1.17 1.204.644 0 1.17-.537 1.17-1.204 0-.667-.526-1.205-1.17-1.205zm-14.14 0c-.388 0-.743.195-.962.517-.135.201-.209.438-.209.688 0 .667.527 1.204 1.17 1.204.644 0 1.17-.537 1.17-1.204 0-.667-.526-1.205-1.17-1.205zm12.998-9.96h-1.981v10.68h.964c.06-.282.175-.548.336-.787.41-.604 1.086-.974 1.823-.974 1.06 0 1.942.755 2.16 1.761h1.775V11.02h-5.076V7.146zm-3.022-2.594H3.04v13.273H5.32c.061-.281.176-.547.337-.786.41-.604 1.085-.974 1.824-.974 1.059 0 1.941.755 2.16 1.761h7.814l.001-11.722V4.551zm4.769 2.599l-.186-.005h-.519v2.833h3.947c-.357-1.625-1.76-2.833-3.428-2.833z"/>
</svg>
